<svg width="156" height="156" xmlns="http://www.w3.org/2000/svg" xmlns:xlink="http://www.w3.org/1999/xlink" xml:space="preserve" overflow="hidden"><g transform="translate(-780 -336)"><path d="M829.562 395.784C818.344 395.784 809.25 404.878 809.25 416.096 809.25 427.315 818.344 436.409 829.562 436.409 840.781 436.409 849.875 427.315 849.875 416.096 849.875 404.878 840.781 395.784 829.562 395.784ZM829.562 403.649C832.713 403.64 835.274 406.186 835.282 409.336 835.291 412.486 832.745 415.047 829.595 415.056 826.445 415.065 823.884 412.519 823.875 409.369 823.875 409.363 823.875 409.358 823.875 409.353 823.875 406.209 826.419 403.658 829.562 403.649ZM840.938 426.513 818.188 426.513 818.188 422.125C818.209 421.235 818.626 420.401 819.325 419.85 821.014 418.68 822.887 417.802 824.866 417.25 826.394 416.811 827.973 416.576 829.562 416.551 831.154 416.556 832.735 416.791 834.259 417.25 836.274 417.773 838.164 418.696 839.816 419.964 840.515 420.515 840.932 421.349 840.954 422.239Z" fill="#15813C"/><path d="M872.463 390.47 852.573 402.397C853.693 404.279 854.587 406.286 855.237 408.378L875.729 396.125C874.358 394.418 873.256 392.51 872.463 390.47Z" fill="#15813C"/><path d="M906.75 382.784C906.75 390.861 900.202 397.409 892.125 397.409 884.048 397.409 877.5 390.861 877.5 382.784 877.5 374.707 884.048 368.159 892.125 368.159 900.202 368.159 906.75 374.707 906.75 382.784Z" fill="#15813C"/><path d="M875.729 436.1 855.237 423.75C854.587 425.841 853.693 427.848 852.573 429.73L872.463 441.723C873.261 439.694 874.362 437.798 875.729 436.1Z" fill="#15813C"/><path d="M906.75 449.409C906.75 457.486 900.202 464.034 892.125 464.034 884.048 464.034 877.5 457.486 877.5 449.409 877.5 441.332 884.048 434.784 892.125 434.784 900.202 434.784 906.75 441.332 906.75 449.409Z" fill="#15813C"/></g></svg>