<svg width="96" height="96" xmlns="http://www.w3.org/2000/svg" xmlns:xlink="http://www.w3.org/1999/xlink" xml:space="preserve" overflow="hidden"><g transform="translate(-128 -509)"><path d="M177.9 589.2C178.6 589.1 179.2 589 179.8 588.8 186.3 586.4 192.6 583.5 198.6 580 212.8 572.1 214.5 568 214.4 565.3 214.3 563.7 213.4 560.9 208.2 560 203.4 559.2 199.6 558.8 196.4 558.6L195 558.5 196.1 557.7C205.4 550.8 219.8 542.9 220.4 542.5 221.4 542 222 541 222 539.9 222 538.2 220.6 536.9 219 536.9 218.5 536.9 218 537 217.6 537.3 216.8 537.7 198.4 547.8 189 555.7 187.3 557.2 185.5 558.9 186.3 561.3 187.1 563.8 189.5 564.1 194.5 564.5 197.6 564.7 201.8 565.1 207 565.9L208 566.1 207.3 566.8C202.8 571.1 186.3 580.9 177.3 583.3 177.1 583.4 176.9 583.4 176.8 583.5L172.8 578C174 576.8 173.5 575.7 172.8 574.7L162.5 560.4 150.3 572.6 164.9 582.8C165.9 583.5 167.1 584 168.1 582.8L176.5 588.9C176.8 589.1 177.1 589.2 177.4 589.2L177.9 589.2Z" stroke="#15813C" fill="#15813C"/><path d="M130 524 130 555 147.3 570.3 160.2 557.5Z" stroke="#15813C" fill="#15813C"/></g></svg>