<svg width="301" height="300" xmlns="http://www.w3.org/2000/svg" xmlns:xlink="http://www.w3.org/1999/xlink" xml:space="preserve" overflow="hidden"><g transform="translate(-484 -262)"><path d="M150 228.125C118.75 228.125 93.75 203.125 93.75 171.875 93.75 140.625 118.75 115.625 150 115.625 181.25 115.625 206.25 140.625 206.25 171.875 206.25 203.125 181.25 228.125 150 228.125ZM87.5 128.125 50 128.125 50 103.125 87.5 103.125 87.5 128.125ZM262.5 78.125 200 78.125 181.25 46.875 118.75 46.875 100 78.125 37.5 78.125C30.625 78.125 25 83.75 25 90.625L25 240.625C25 247.5 30.625 253.125 37.5 253.125L262.5 253.125C269.375 253.125 275 247.5 275 240.625L275 90.625C275 83.75 269.375 78.125 262.5 78.125Z" fill="#15813C" transform="matrix(1.00333 0 0 1 484 262)"/><path d="M150 140.625C132.5 140.625 118.75 154.375 118.75 171.875 118.75 189.375 132.5 203.125 150 203.125 167.5 203.125 181.25 189.375 181.25 171.875 181.25 154.375 167.5 140.625 150 140.625ZM150 215.625C125.625 215.625 106.25 196.25 106.25 171.875 106.25 147.5 125.625 128.125 150 128.125 174.375 128.125 193.75 147.5 193.75 171.875 193.75 196.25 174.375 215.625 150 215.625Z" fill="#15813C" transform="matrix(1.00333 0 0 1 484 262)"/></g></svg>